# xmcd
#
# Track frame offsets:
#	182
#	24610
#	40200
#	60045
#	94285
#	120267
#	143387
#	165487
#	183325
#	201627
#	205320
#	232937
#	247972
#	258455
#	268580
#	285077
#	307170
#	326112
#
# Disc length: 4552 seconds
# Revision: 0
# Processed by: cddbd v1.5.2PL0 Copyright (c) Steve Scherf et al.
# Submitted via: dBpowerAMP V12.0
#
DISCID=f511c612
DTITLE=Fleetwood Mac - Blues Jam in Chicago, Vol. 2
DYEAR=1969
DGENRE=Blues
TTITLE0=World's in a Tangle
TTITLE1=Talk With You
TTITLE2=Like It This Way
TTITLE3=Someday Soon Baby
TTITLE4=Hungry Country Girl
TTITLE5=Black Jack Blues
TTITLE6=Everyday I Have the Blues
TTITLE7=Rockin' Boogie
TTITLE8=My Baby's Gone
TTITLE9=Sugar Mama [Take 1- incomplete]
TTITLE10=Sugar Mama
TTITLE11=Homework
TTITLE12=Honey Boy Blues
TTITLE13=I Need Your Love [Take 1- incomplete]
TTITLE14=Horton's Boogie Woogie [Take 2]
TTITLE15=Have a Good Time
TTITLE16=That's Wrong
TTITLE17=Rock Me Baby
EXTD=
EXTT0=
EXTT1=
EXTT2=
EXTT3=
EXTT4=
EXTT5=
EXTT6=
EXTT7=
EXTT8=
EXTT9=
EXTT10=
EXTT11=
EXTT12=
EXTT13=
EXTT14=
EXTT15=
EXTT16=
EXTT17=
PLAYORDER=
